<svg width="250" height="31" viewBox="0 0 250 31" fill="none" xmlns="http://www.w3.org/2000/svg">
<path d="M26.8293 26.1053C26.8293 26.1053 26.5244 29.9803 16.9715 29.9803C12.2967 29.9803 8.73984 26.5132 8.73984 26.5132C8.73984 26.5132 5.89431 21.8224 13.4146 19.375C19.1626 17.5048 31.7073 15.9079 31.7073 9.78947C31.7073 5.71053 27.8455 0.203947 16.6667 0.203947C4.6687 0.203947 0 8.36184 0 15.7039C0 23.0461 5.28455 31 16.6667 31C28.0488 31 30.6911 24.8816 30.6911 24.8816C30.6911 24.8816 29.878 25.4934 28.6585 25.9013C27.6199 26.248 26.8293 26.1053 26.8293 26.1053ZM3.86179 14.6842C3.86179 7.95395 8.73984 1.01974 16.6667 1.01974C24.5935 1.01974 27.7439 6.42434 27.0325 9.99342C26.4736 12.7936 19.7134 16.1057 12.6016 18.5592C6.09756 20.8026 7.31707 25.0855 7.31707 25.0855C7.31707 25.0855 3.86179 21.4145 3.86179 14.6842ZM33.7398 5.09868C33.7398 5.09868 35.1626 2.03947 38.2114 2.03947H56.0976L31.5041 28.7566V30.1842H61.7886C61.7886 30.1842 60.3659 29.3684 59.3496 28.3487C58.1301 27.125 57.5203 25.9013 57.5203 25.9013C57.5203 25.9013 56.5041 29.1645 52.439 29.1645H35.5691L58.9431 0.815789H29.2683C29.2683 0.815789 30.6911 1.42763 31.9106 2.65132C33.1301 3.875 33.7398 5.09868 33.7398 5.09868ZM74.187 0C65.2073 0 57.9268 7.19934 57.9268 15.7039C57.9268 24.2086 65.2073 31 74.187 31C83.1667 31 90.4472 24.2086 90.4472 15.7039C90.4472 6.01645 83.1667 0 74.187 0ZM81.9106 26.1053C75.3557 31.0591 66.4431 30.3372 62.1951 24.6776C57.9472 19.0181 59.7053 10.4605 66.2602 5.50658C72.815 0.552697 82.1341 0.662829 86.3821 6.32237C90.6301 11.9819 88.4654 21.1514 81.9106 26.1053ZM138.415 0C129.435 0 122.154 7.19934 122.154 15.7039C122.154 24.2086 129.435 31 138.415 31C147.394 31 154.675 24.2086 154.675 15.7039C154.675 6.01645 147.394 0 138.415 0ZM146.138 26.1053C139.583 31.0591 130.671 30.3372 126.423 24.6776C122.175 19.0181 123.933 10.4605 130.488 5.50658C137.043 0.552697 146.362 0.662829 150.61 6.32237C154.858 11.9819 152.693 21.1514 146.138 26.1053ZM115.041 1.42763C118.699 1.42763 118.496 8.76974 118.496 8.76974L121.951 0.815789L105.793 0.611842L89.8374 0.815789L93.0894 8.76974C93.0894 8.76974 93.0894 1.42763 96.748 1.42763H104.065V25.0855C104.065 29.1645 100.61 30.1842 100.61 30.1842H111.179C111.179 30.1842 107.724 29.1645 107.724 25.0855V1.42763H115.041ZM160.569 5.50658C160.569 9.38158 158.943 16.9276 158.943 20.3947C158.943 26.3092 161.992 31 169.309 31C179.065 31 181.301 12.8487 181.301 12.8487V24.2697C181.301 29.1645 180.285 30.1842 180.285 30.1842H185.976C185.976 30.1842 183.943 28.9605 183.943 23.4539V8.76974C183.943 2.65132 184.35 0.815789 184.35 0.815789H178.455C178.455 0.815789 181.098 2.24342 181.098 8.76974C181.098 12.6447 179.472 18.3553 177.236 23.25C175.943 26.0808 173.374 29.7763 169.309 29.7763C165.244 29.7763 162.602 25.6974 162.602 20.3947C162.602 16.1118 164.431 0.815789 164.431 0.815789H158.333C158.333 0.815789 160.569 1.63158 160.569 5.50658ZM206.098 31C214.228 31 218.496 26.1053 218.496 26.1053C216.565 27.6349 214.329 26.6151 214.329 26.6151C212.703 28.4507 211.179 30.1842 206.098 30.1842C201.016 30.1842 193.699 24.4737 193.699 15.2961C193.699 6.93421 197.967 0.815789 206.098 0.815789C212.602 0.815789 214.228 4.28289 214.228 4.28289C216.057 3.26316 218.089 4.07895 218.089 4.07895C218.089 4.07895 214.634 0 206.911 0C194.512 0 189.634 7.95395 189.634 15.2961C189.634 25.9013 196.951 31 206.098 31ZM247.561 25.4934V5.50658C247.561 2.03947 250 0.815789 250 0.815789H241.502C241.502 0.815789 243.864 1.83553 243.902 5.50658V10.4013C243.902 12.2368 242.48 16.1118 234.146 13.8684C228.205 12.2695 225.61 16.7237 225.61 16.7237V5.50658C225.61 2.03947 228.049 0.815789 228.049 0.815789H219.551C219.551 0.815789 221.913 1.83553 221.951 5.50658V25.4934C221.951 28.9605 219.551 30.1842 219.551 30.1842H228.049C228.049 30.1842 225.61 28.9605 225.61 25.4934V18.7632C225.61 17.5395 228.167 13.2362 234.553 15.2961C240.244 17.1316 243.089 15.5 243.902 13.0526V25.4934C243.902 28.9605 241.502 30.1842 241.502 30.1842H250C250 30.1842 247.561 28.9605 247.561 25.4934Z" fill="white"/>
</svg>
