<svg width="243" height="29" viewBox="0 0 243 29" fill="none" xmlns="http://www.w3.org/2000/svg">
<path d="M26.078 24.4211C26.078 24.4211 25.7817 28.0461 16.4963 28.0461C11.9524 28.0461 8.49512 24.8026 8.49512 24.8026C8.49512 24.8026 5.72927 20.4145 13.039 18.125C18.626 16.3755 30.8195 14.8816 30.8195 9.1579C30.8195 5.34211 27.0659 0.190789 16.2 0.190789C4.53798 0.190789 0 7.82237 0 14.6908C0 21.5592 5.13659 29 16.2 29C27.2634 29 29.8317 23.2763 29.8317 23.2763C29.8317 23.2763 29.0415 23.8487 27.8561 24.2303C26.8466 24.5546 26.078 24.4211 26.078 24.4211ZM3.75366 13.7368C3.75366 7.44079 8.49512 0.953947 16.2 0.953947C23.9049 0.953947 26.9671 6.00987 26.2756 9.34868C25.7323 11.9682 19.1614 15.0666 12.2488 17.3618C5.92683 19.4605 7.1122 23.4671 7.1122 23.4671C7.1122 23.4671 3.75366 20.0329 3.75366 13.7368ZM32.7951 4.76974C32.7951 4.76974 34.1781 1.90789 37.1415 1.90789H54.5268L30.622 26.9013V28.2368H60.0585C60.0585 28.2368 58.6756 27.4737 57.6878 26.5197C56.5024 25.375 55.9098 24.2303 55.9098 24.2303C55.9098 24.2303 54.922 27.2829 50.9707 27.2829H34.5732L57.2927 0.763158H28.4488C28.4488 0.763158 29.8317 1.33553 31.0171 2.48026C32.2024 3.625 32.7951 4.76974 32.7951 4.76974ZM72.1098 0C63.3815 0 56.3049 6.73487 56.3049 14.6908C56.3049 22.6467 63.3815 29 72.1098 29C80.838 29 87.9146 22.6467 87.9146 14.6908C87.9146 5.62829 80.838 0 72.1098 0ZM79.6171 24.4211C73.2457 29.0553 64.5827 28.3799 60.4537 23.0855C56.3246 17.7911 58.0335 9.78559 64.4049 5.15132C70.7762 0.517039 79.8344 0.620066 83.9634 5.91447C88.0924 11.2089 85.9884 19.7868 79.6171 24.4211ZM134.539 0C125.811 0 118.734 6.73487 118.734 14.6908C118.734 22.6467 125.811 29 134.539 29C143.267 29 150.344 22.6467 150.344 14.6908C150.344 5.62829 143.267 0 134.539 0ZM142.046 24.4211C135.675 29.0553 127.012 28.3799 122.883 23.0855C118.754 17.7911 120.463 9.78559 126.834 5.15132C133.205 0.517039 142.264 0.620066 146.393 5.91447C150.522 11.2089 148.418 19.7868 142.046 24.4211ZM111.82 1.33553C115.376 1.33553 115.178 8.20395 115.178 8.20395L118.537 0.763158L102.83 0.572368L87.322 0.763158L90.4829 8.20395C90.4829 8.20395 90.4829 1.33553 94.039 1.33553H101.151V23.4671C101.151 27.2829 97.7927 28.2368 97.7927 28.2368H108.066C108.066 28.2368 104.707 27.2829 104.707 23.4671V1.33553H111.82ZM156.073 5.15132C156.073 8.77632 154.493 15.8355 154.493 19.0789C154.493 24.6118 157.456 29 164.568 29C174.051 29 176.224 12.0197 176.224 12.0197V22.7039C176.224 27.2829 175.237 28.2368 175.237 28.2368H180.768C180.768 28.2368 178.793 27.0921 178.793 21.9408V8.20395C178.793 2.48026 179.188 0.763158 179.188 0.763158H173.459C173.459 0.763158 176.027 2.09868 176.027 8.20395C176.027 11.8289 174.446 17.1711 172.273 21.75C171.017 24.3982 168.52 27.8553 164.568 27.8553C160.617 27.8553 158.049 24.0395 158.049 19.0789C158.049 15.0724 159.827 0.763158 159.827 0.763158H153.9C153.9 0.763158 156.073 1.52632 156.073 5.15132ZM200.327 29C208.229 29 212.378 24.4211 212.378 24.4211C210.501 25.852 208.328 24.898 208.328 24.898C206.748 26.6151 205.266 28.2368 200.327 28.2368C195.388 28.2368 188.276 22.8947 188.276 14.3092C188.276 6.48684 192.424 0.763158 200.327 0.763158C206.649 0.763158 208.229 4.00658 208.229 4.00658C210.007 3.05263 211.983 3.81579 211.983 3.81579C211.983 3.81579 208.624 0 201.117 0C189.066 0 184.324 7.44079 184.324 14.3092C184.324 24.2303 191.437 29 200.327 29ZM240.629 23.8487V5.15132C240.629 1.90789 243 0.763158 243 0.763158H234.74C234.74 0.763158 237.036 1.71711 237.073 5.15132V9.73026C237.073 11.4474 235.69 15.0724 227.59 12.9737C221.816 11.4779 219.293 15.6447 219.293 15.6447V5.15132C219.293 1.90789 221.663 0.763158 221.663 0.763158H213.403C213.403 0.763158 215.699 1.71711 215.737 5.15132V23.8487C215.737 27.0921 213.403 28.2368 213.403 28.2368H221.663C221.663 28.2368 219.293 27.0921 219.293 23.8487V17.5526C219.293 16.4079 221.778 12.3822 227.985 14.3092C233.517 16.0263 236.283 14.5 237.073 12.2105V23.8487C237.073 27.0921 234.74 28.2368 234.74 28.2368H243C243 28.2368 240.629 27.0921 240.629 23.8487Z" fill="white"/>
</svg>
