<svg width="58" height="15" viewBox="0 0 58 15" fill="none" xmlns="http://www.w3.org/2000/svg">
<path d="M6.39502 2C2.86566 2 0.00780833 4.90798 0 8.49927C0 12.0905 2.85785 14.9985 6.38721 15.0065C9.91658 15.0065 12.7744 12.0985 12.7822 8.50722C12.7822 4.90799 9.92439 2 6.39502 2ZM9.79946 8.49927C9.79946 10.4141 8.27683 11.9634 6.39502 11.9714C4.51322 11.9714 2.98278 10.422 2.98278 8.50722C2.98278 6.5924 4.50541 5.03511 6.38721 5.03511C8.26902 5.03511 9.79946 6.58444 9.79946 8.49927Z" fill="#2A62FF"/>
<path d="M24.4184 11.6814H19.3508L25.8161 2.99714C26.0269 2.7111 25.8317 2.29794 25.4725 2.29794H16.1806C15.2592 2.29794 14.4706 3.15604 14.6658 4.12537C14.8063 4.84045 15.4622 5.32511 16.1806 5.32511H20.3424L13.8693 14.0173C13.6585 14.3033 13.8537 14.7085 14.2051 14.7085H24.3637C25.0821 14.7085 25.738 14.2239 25.8785 13.5088C26.0737 12.5315 25.3398 11.6814 24.4184 11.6814Z" fill="#2A62FF"/>
<path d="M35.8586 2.00397C30.916 2.00397 26.9103 4.91196 26.9103 8.50324C26.9103 12.0945 30.916 15.0025 35.8586 15.0025C40.8013 15.0025 44.807 12.0945 44.807 8.50324C44.807 4.91196 40.8013 2.00397 35.8586 2.00397ZM35.8586 11.9754C32.4464 11.9754 29.8931 10.1479 29.8931 8.51119C29.8931 6.87446 32.4464 5.04703 35.8586 5.04703C39.2709 5.04703 41.8242 6.87446 41.8242 8.51119C41.8242 10.1479 39.2787 11.9754 35.8586 11.9754Z" fill="#2A62FF"/>
<path d="M57.5505 3.81175V14.2757C57.5505 14.3711 57.5193 14.4664 57.4568 14.5459C57.3085 14.7366 57.0352 14.7683 56.8478 14.6174L48.7897 8.11018V13.1952C48.7897 14.0533 48.0947 14.7366 47.2514 14.7127C46.4394 14.6889 45.8069 13.9818 45.8069 13.1555V2.73119C45.8069 2.6279 45.8381 2.53256 45.9006 2.4531C46.0489 2.27036 46.3222 2.23859 46.5018 2.38955L54.56 8.89676V3.85148C54.56 3.02517 55.1924 2.32598 55.9967 2.2942C56.8478 2.26242 57.5505 2.95366 57.5505 3.81175Z" fill="#2A62FF"/>
</svg>
