<svg width="33" height="17" viewBox="0 0 33 17" fill="none" xmlns="http://www.w3.org/2000/svg">
<path d="M25.7415 4.90461C24.4135 4.90461 23.2126 5.28313 22.1887 5.93316V0H19.3557V10.9421C19.3557 14.2711 22.2198 16.9502 25.7246 16.9502C29.2292 16.9502 32.126 14.2872 32.126 10.9113C32.126 7.53548 29.2931 4.90328 25.7401 4.90328L25.7415 4.90461ZM12.8835 11.7152L10.291 5.3286H8.3066L5.6985 11.7152L3.0904 5.3286H0L4.56135 16.5583H6.54571L9.2825 9.86942L12.0349 16.5583H14.0193L18.565 5.3286H15.4916L12.8835 11.7152ZM25.726 14.2725C23.8053 14.2725 22.1887 12.82 22.1887 10.9274C22.1887 9.03483 23.7091 7.59836 25.7415 7.59836C27.774 7.59836 29.2945 9.09635 29.2945 10.9274C29.2945 12.7584 27.6778 14.2725 25.726 14.2725Z" fill="#A623E3"/>
</svg>
